# xmcd
#
# Track frame offsets: 
#        150
#        9818
#        24480
#        36735
#        62775
#        78943
#        90575
#        102625
#        118790
#        139658
#        155610
#        169990
#        180443
#        192293
#
# Disc length: 2874 seconds
#
# Revision: 2
# Processed by: cddbd v1.5.2PL0 Copyright (c) Steve Scherf et al.
# Submitted via: ExactAudioCopyFreeDBPlugin 1.0
#
DISCID=b60b380e
DTITLE=Various Artist - Soul Train
DYEAR=1991
DGENRE=Soul
TTITLE0=Ike and Tina Turner - Too Hot To Hold
TTITLE1=Percy Sledge - Make It Good And Make It Last
TTITLE2=Sam Cooke - You Send Me
TTITLE3=Lou Rawls - Season Of The With
TTITLE4=Billy Ocean - Light Up The world With Sunshine
TTITLE5=The Drifters - Saturday Night At The Movies
TTITLE6=Sam and Dave - Hold On, I'm Coming
TTITLE7=MAC and Katie Kissoon - Take Up The Hammer
TTITLE8=Relief - We Are The World
TTITLE9=The Tymes - Miss Grace
TTITLE10=R. Dean Taylor - Indiana Wants Me
TTITLE11=Rufus Thomas - Walking The Dog
TTITLE12=Martha Reeves - Dancing In The Street
TTITLE13=Donna Summer - Funstreet
EXTD=
EXTT0=
EXTT1=
EXTT2=
EXTT3=
EXTT4=
EXTT5=
EXTT6=
EXTT7=
EXTT8=
EXTT9=
EXTT10=
EXTT11=
EXTT12=
EXTT13=
PLAYORDER=
